<svg width="0" height="0" style="position:absolute"><defs/><symbol viewBox="0 0 21 21" id="icon-close" xmlns="http://www.w3.org/2000/svg">
  <path fill="currentColor" d="M12.2 10.5l8.3 8.3c.5.5.5 1.2 0 1.7s-1.3.5-1.7 0l-8.3-8.3-8.3 8.3c-.5.5-1.2.5-1.7 0s-.5-1.3 0-1.7l8.3-8.3L.5 2.2C0 1.7 0 1 .5.5S1.8 0 2.2.5l8.3 8.3L18.8.5c.5-.5 1.2-.5 1.7 0s.5 1.3 0 1.7l-8.3 8.3z"/>
</symbol><symbol viewBox="0 0 21 21" id="icon-up" xmlns="http://www.w3.org/2000/svg">
  <path fill="currentColor" stroke-width="0" d="M12.2 10.5l8.3 8.3c.5.5.5 1.2 0 1.7s-1.3.5-1.7 0l-8.3-8.3-8.3 8.3c-.5.5-1.2.5-1.7 0s-.5-1.3 0-1.7l8.3-8.3L.5 2.2C0 1.7 0 1 .5.5S1.8 0 2.2.5l8.3 8.3L18.8.5c.5-.5 1.2-.5 1.7 0s.5 1.3 0 1.7l-8.3 8.3z"/>
</symbol></svg>